# xmcd
#
# Track frame offsets:
#	150
#	10152
#	33609
#	54801
#	68606
#	78977
#	88725
#	114495
#	155979
#	169660
#	180330
#	194871
#	212578
#
# Disc length: 3423 seconds
#
# Revision: 1
# Processed by: cddbd v1.5.1PL0 Copyright (c) Steve Scherf et al.
# Submitted via: CDmax 1.8
#
DISCID=a80d5d0d
DTITLE=James Brown - In Concert
DYEAR=2004
DGENRE=Funk
TTITLE0=(Give It Up) Turn It Loose
TTITLE1=It's Too Funky in Here
TTITLE2=Try Me
TTITLE3=Get on the Good Foot
TTITLE4=Prisoner of Love
TTITLE5=Get Up Offa That Thang
TTITLE6=Georgia
TTITLE7=It's a Man's Man's World
TTITLE8=Cold Sweat/I Can't Stand It (Medley)
TTITLE9=Papa's Got a Brand New Bag
TTITLE10=I Feel Good (I Got You)
TTITLE11=Please Please Please
TTITLE12=Jam
EXTD=
EXTT0=
EXTT1=
EXTT2=
EXTT3=
EXTT4=
EXTT5=
EXTT6=
EXTT7=
EXTT8=
EXTT9=
EXTT10=
EXTT11=
EXTT12=
PLAYORDER=
